# 3ds Max Wavefront OBJ Exporter v0.97b - (c)2007 guruware
# File Created: 01.04.2014 21:53:07

#
# object Crystal
#

v  0.5000 2.0000 -0.5000
v  0.9174 1.3116 -0.5000
v  0.5000 1.3116 -0.9174
v  0.0826 1.3116 -0.5000
v  0.5000 1.3116 -0.0826
v  0.5000 0.0000 -0.5000
# 6 vertices

vn 0.6499 0.3941 -0.6499
vn -0.6499 0.3941 -0.6499
vn -0.6499 0.3941 0.6499
vn 0.6499 0.3941 0.6499
vn 0.6899 -0.2196 -0.6899
vn -0.6899 -0.2196 -0.6899
vn -0.6899 -0.2196 0.6899
vn 0.6899 -0.2196 0.6899
# 8 vertex normals

vt 0.4766 0.1563 0.5000
vt 0.3828 -0.0000 0.7639
vt 0.5703 -0.0000 0.5000
vt 0.4766 0.3125 0.5000
vt 0.3828 0.1563 0.7639
vt 0.5703 0.1563 0.5000
vt 0.3828 -0.0000 0.2361
vt 0.3828 0.1563 0.2361
vt 0.1875 0.3594 0.7639
vt 0.2813 -0.0000 0.5000
vt 0.3750 0.3594 0.5000
vt 0.0000 0.3594 0.2361
vt 0.0938 -0.0000 0.5000
vt 0.1875 0.3594 0.5000
# 14 texture coords

g Crystal
s off
f 1/1/1 2/2/1 3/3/1 
f 1/4/2 3/5/2 4/6/2 
f 1/1/3 4/7/3 5/3/3 
f 1/4/4 5/8/4 2/6/4 
f 2/9/5 6/10/5 3/11/5 
f 3/9/6 6/10/6 4/11/6 
f 4/12/7 6/13/7 5/14/7 
f 5/12/8 6/13/8 2/14/8 
# 8 faces

#
# object Ring_Panel03
#

v  0.4323 0.6361 -0.9729
v  0.4323 1.4274 -0.9729
v  0.2129 1.4274 -0.8816
v  0.2129 0.6361 -0.8816
v  0.3998 0.6361 -1.0510
v  0.1804 0.6361 -0.9597
v  0.1804 1.4274 -0.9597
v  0.3998 1.4274 -1.0510
# 8 vertices

vn 0.3840 0.0000 0.9233
vn -0.3840 -0.0000 -0.9233
vn 0.0000 -1.0000 0.0000
vn -0.9233 -0.0000 0.3840
vn -0.0000 1.0000 -0.0000
vn 0.9233 0.0000 -0.3840
# 6 vertex normals

vt 0.1172 0.5703 0.1259
vt 0.1172 0.7813 0.1259
vt 0.0234 0.7813 0.1993
vt 0.0234 0.5703 0.1993
vt 0.0234 0.5703 0.0631
vt 0.1172 0.5703 0.1365
vt 0.1172 0.7813 0.1365
vt 0.0234 0.7813 0.0631
vt 0.0234 0.5703 0.0005
vt 0.1172 0.5703 0.0005
vt 0.1172 0.5313 0.0005
vt 0.0234 0.5313 0.0005
vt 0.0234 0.5703 0.7339
vt 0.0234 0.7813 0.7339
vt 0.0000 0.7813 0.7604
vt 0.0000 0.5703 0.7604
vt 0.1172 0.5703 0.9995
vt 0.0234 0.5703 0.9995
vt 0.0234 0.5313 0.9995
vt 0.1172 0.5313 0.9995
vt 0.0000 0.7813 0.5552
vt 0.0000 0.5703 0.5552
vt 0.0234 0.5703 0.5817
vt 0.0234 0.7813 0.5817
# 24 texture coords

g Ring_Panel03
s 2
f 7/15/9 8/16/9 9/17/9 
f 9/17/9 10/18/9 7/15/9 
s 4
f 11/19/10 12/20/10 13/21/10 
f 13/21/10 14/22/10 11/19/10 
s 8
f 7/23/11 10/24/11 12/25/11 
f 12/25/11 11/26/11 7/23/11 
s 16
f 10/27/12 9/28/12 13/29/12 
f 13/29/12 12/30/12 10/27/12 
s 32
f 9/31/13 8/32/13 14/33/13 
f 14/33/13 13/34/13 9/31/13 
s 64
f 8/35/14 7/36/14 11/37/14 
f 11/37/14 14/38/14 8/35/14 
# 12 faces

#
# object Ring_Gem03
#

v  0.4670 0.9827 -0.9895
v  0.4670 1.3321 -0.9895
v  0.1766 1.3321 -0.8687
v  0.1766 0.9827 -0.8687
v  0.4091 0.9827 -1.1288
v  0.1187 0.9827 -1.0080
v  0.1187 1.3321 -1.0080
v  0.4091 1.3321 -1.1288
# 8 vertices

vn 0.3840 0.0000 0.9233
vn -0.3840 -0.0000 -0.9233
vn 0.0000 -1.0000 0.0000
vn -0.9233 -0.0000 0.3840
vn -0.0000 1.0000 -0.0000
vn 0.9233 0.0000 -0.3840
# 6 vertex normals

vt 0.2813 0.4141 0.1126
vt 0.2813 0.5234 0.1126
vt 0.1719 0.5234 0.2097
vt 0.1719 0.4141 0.2097
vt 0.0625 0.4141 0.0005
vt 0.1719 0.4141 0.0977
vt 0.1719 0.5234 0.0977
vt 0.0625 0.5234 0.0005
vt 0.0625 0.4141 0.4381
vt 0.1719 0.4141 0.4381
vt 0.1719 0.3672 0.4381
vt 0.0625 0.3672 0.4381
vt 0.0000 0.4141 0.7635
vt 0.0000 0.5234 0.7635
vt 0.0625 0.5234 0.8107
vt 0.0625 0.4141 0.8107
vt 0.1719 0.4141 0.8792
vt 0.0625 0.4141 0.8792
vt 0.0625 0.3672 0.8792
vt 0.1719 0.3672 0.8792
vt 0.0000 0.5234 0.5269
vt 0.0000 0.4141 0.5269
vt 0.0625 0.4141 0.5741
vt 0.0625 0.5234 0.5741
# 24 texture coords

g Ring_Gem03
s 2
f 15/39/15 16/40/15 17/41/15 
f 17/41/15 18/42/15 15/39/15 
s 4
f 19/43/16 20/44/16 21/45/16 
f 21/45/16 22/46/16 19/43/16 
s 8
f 15/47/17 18/48/17 20/49/17 
f 20/49/17 19/50/17 15/47/17 
s 16
f 18/51/18 17/52/18 21/53/18 
f 21/53/18 20/54/18 18/51/18 
s 32
f 17/55/19 16/56/19 22/57/19 
f 22/57/19 21/58/19 17/55/19 
s 64
f 16/59/20 15/60/20 19/61/20 
f 19/61/20 22/62/20 16/59/20 
# 12 faces

#
# object Ring_Gem01
#

v  0.5330 0.9827 -0.0105
v  0.5330 1.3321 -0.0105
v  0.8234 1.3321 -0.1313
v  0.8234 0.9827 -0.1313
v  0.5909 0.9827 0.1288
v  0.8813 0.9827 0.0080
v  0.8813 1.3321 0.0080
v  0.5909 1.3321 0.1288
# 8 vertices

vn -0.3840 0.0000 -0.9233
vn 0.3840 -0.0000 0.9233
vn -0.0000 -1.0000 -0.0000
vn 0.9233 -0.0000 -0.3840
vn 0.0000 1.0000 0.0000
vn -0.9233 0.0000 0.3840
# 6 vertex normals

vt 0.2813 0.4141 0.1126
vt 0.2813 0.5234 0.1126
vt 0.1719 0.5234 0.2097
vt 0.1719 0.4141 0.2097
vt 0.0625 0.4141 0.0005
vt 0.1719 0.4141 0.0977
vt 0.1719 0.5234 0.0977
vt 0.0625 0.5234 0.0005
vt 0.0625 0.4141 0.4381
vt 0.1719 0.4141 0.4381
vt 0.1719 0.3672 0.4381
vt 0.0625 0.3672 0.4381
vt 0.0000 0.4141 0.7635
vt 0.0000 0.5234 0.7635
vt 0.0625 0.5234 0.8107
vt 0.0625 0.4141 0.8107
vt 0.1719 0.4141 0.8792
vt 0.0625 0.4141 0.8792
vt 0.0625 0.3672 0.8792
vt 0.1719 0.3672 0.8792
vt 0.0000 0.5234 0.5269
vt 0.0000 0.4141 0.5269
vt 0.0625 0.4141 0.5741
vt 0.0625 0.5234 0.5741
# 24 texture coords

g Ring_Gem01
s 2
f 23/63/21 24/64/21 25/65/21 
f 25/65/21 26/66/21 23/63/21 
s 4
f 27/67/22 28/68/22 29/69/22 
f 29/69/22 30/70/22 27/67/22 
s 8
f 23/71/23 26/72/23 28/73/23 
f 28/73/23 27/74/23 23/71/23 
s 16
f 26/75/24 25/76/24 29/77/24 
f 29/77/24 28/78/24 26/75/24 
s 32
f 25/79/25 24/80/25 30/81/25 
f 30/81/25 29/82/25 25/79/25 
s 64
f 24/83/26 23/84/26 27/85/26 
f 27/85/26 30/86/26 24/83/26 
# 12 faces

#
# object Ring_Gem02
#

v  0.9895 0.9827 -0.5330
v  0.9895 1.3321 -0.5330
v  0.8687 1.3321 -0.8234
v  0.8687 0.9827 -0.8234
v  1.1288 0.9827 -0.5909
v  1.0080 0.9827 -0.8813
v  1.0080 1.3321 -0.8813
v  1.1288 1.3321 -0.5909
# 8 vertices

vn -0.9233 0.0000 0.3840
vn 0.9233 -0.0000 -0.3840
vn -0.0000 -1.0000 0.0000
vn -0.3840 -0.0000 -0.9233
vn 0.0000 1.0000 -0.0000
vn 0.3840 0.0000 0.9233
# 6 vertex normals

vt 0.2813 0.4141 0.1126
vt 0.2813 0.5234 0.1126
vt 0.1719 0.5234 0.2097
vt 0.1719 0.4141 0.2097
vt 0.0625 0.4141 0.0005
vt 0.1719 0.4141 0.0977
vt 0.1719 0.5234 0.0977
vt 0.0625 0.5234 0.0005
vt 0.0625 0.4141 0.4381
vt 0.1719 0.4141 0.4381
vt 0.1719 0.3672 0.4381
vt 0.0625 0.3672 0.4381
vt 0.0000 0.4141 0.7635
vt 0.0000 0.5234 0.7635
vt 0.0625 0.5234 0.8107
vt 0.0625 0.4141 0.8107
vt 0.1719 0.4141 0.8792
vt 0.0625 0.4141 0.8792
vt 0.0625 0.3672 0.8792
vt 0.1719 0.3672 0.8792
vt 0.0000 0.5234 0.5269
vt 0.0000 0.4141 0.5269
vt 0.0625 0.4141 0.5741
vt 0.0625 0.5234 0.5741
# 24 texture coords

g Ring_Gem02
s 2
f 31/87/27 32/88/27 33/89/27 
f 33/89/27 34/90/27 31/87/27 
s 4
f 35/91/28 36/92/28 37/93/28 
f 37/93/28 38/94/28 35/91/28 
s 8
f 31/95/29 34/96/29 36/97/29 
f 36/97/29 35/98/29 31/95/29 
s 16
f 34/99/30 33/100/30 37/101/30 
f 37/101/30 36/102/30 34/99/30 
s 32
f 33/103/31 32/104/31 38/105/31 
f 38/105/31 37/106/31 33/103/31 
s 64
f 32/107/32 31/108/32 35/109/32 
f 35/109/32 38/110/32 32/107/32 
# 12 faces

#
# object Ring_Panel02
#

v  0.9729 0.6361 -0.5677
v  0.9729 1.4274 -0.5677
v  0.8816 1.4274 -0.7871
v  0.8816 0.6361 -0.7871
v  1.0510 0.6361 -0.6002
v  0.9597 0.6361 -0.8196
v  0.9597 1.4274 -0.8196
v  1.0510 1.4274 -0.6002
# 8 vertices

vn -0.9233 0.0000 0.3840
vn 0.9233 -0.0000 -0.3840
vn -0.0000 -1.0000 0.0000
vn -0.3840 -0.0000 -0.9233
vn 0.0000 1.0000 -0.0000
vn 0.3840 0.0000 0.9233
# 6 vertex normals

vt 0.1172 0.5703 0.1259
vt 0.1172 0.7813 0.1259
vt 0.0234 0.7813 0.1993
vt 0.0234 0.5703 0.1993
vt 0.0234 0.5703 0.0631
vt 0.1172 0.5703 0.1365
vt 0.1172 0.7813 0.1365
vt 0.0234 0.7813 0.0631
vt 0.0234 0.5703 0.0005
vt 0.1172 0.5703 0.0005
vt 0.1172 0.5313 0.0005
vt 0.0234 0.5313 0.0005
vt 0.0234 0.5703 0.7339
vt 0.0234 0.7813 0.7339
vt 0.0000 0.7813 0.7604
vt 0.0000 0.5703 0.7604
vt 0.1172 0.5703 0.9995
vt 0.0234 0.5703 0.9995
vt 0.0234 0.5313 0.9995
vt 0.1172 0.5313 0.9995
vt 0.0000 0.7813 0.5552
vt 0.0000 0.5703 0.5552
vt 0.0234 0.5703 0.5817
vt 0.0234 0.7813 0.5817
# 24 texture coords

g Ring_Panel02
s 2
f 39/111/33 40/112/33 41/113/33 
f 41/113/33 42/114/33 39/111/33 
s 4
f 43/115/34 44/116/34 45/117/34 
f 45/117/34 46/118/34 43/115/34 
s 8
f 39/119/35 42/120/35 44/121/35 
f 44/121/35 43/122/35 39/119/35 
s 16
f 42/123/36 41/124/36 45/125/36 
f 45/125/36 44/126/36 42/123/36 
s 32
f 41/127/37 40/128/37 46/129/37 
f 46/129/37 45/130/37 41/127/37 
s 64
f 40/131/38 39/132/38 43/133/38 
f 43/133/38 46/134/38 40/131/38 
# 12 faces

#
# object Ring_Panel01
#

v  0.5677 0.6361 -0.0271
v  0.5677 1.4274 -0.0271
v  0.7871 1.4274 -0.1184
v  0.7871 0.6361 -0.1184
v  0.6002 0.6361 0.0510
v  0.8196 0.6361 -0.0403
v  0.8196 1.4274 -0.0403
v  0.6002 1.4274 0.0510
# 8 vertices

vn -0.3840 0.0000 -0.9233
vn 0.3840 -0.0000 0.9233
vn -0.0000 -1.0000 -0.0000
vn 0.9233 -0.0000 -0.3840
vn 0.0000 1.0000 0.0000
vn -0.9233 0.0000 0.3840
# 6 vertex normals

vt 0.1172 0.5703 0.1259
vt 0.1172 0.7813 0.1259
vt 0.0234 0.7813 0.1993
vt 0.0234 0.5703 0.1993
vt 0.0234 0.5703 0.0631
vt 0.1172 0.5703 0.1365
vt 0.1172 0.7813 0.1365
vt 0.0234 0.7813 0.0631
vt 0.0234 0.5703 0.0005
vt 0.1172 0.5703 0.0005
vt 0.1172 0.5313 0.0005
vt 0.0234 0.5313 0.0005
vt 0.0234 0.5703 0.7339
vt 0.0234 0.7813 0.7339
vt 0.0000 0.7813 0.7604
vt 0.0000 0.5703 0.7604
vt 0.1172 0.5703 0.9995
vt 0.0234 0.5703 0.9995
vt 0.0234 0.5313 0.9995
vt 0.1172 0.5313 0.9995
vt 0.0000 0.7813 0.5552
vt 0.0000 0.5703 0.5552
vt 0.0234 0.5703 0.5817
vt 0.0234 0.7813 0.5817
# 24 texture coords

g Ring_Panel01
s 2
f 47/135/39 48/136/39 49/137/39 
f 49/137/39 50/138/39 47/135/39 
s 4
f 51/139/40 52/140/40 53/141/40 
f 53/141/40 54/142/40 51/139/40 
s 8
f 47/143/41 50/144/41 52/145/41 
f 52/145/41 51/146/41 47/143/41 
s 16
f 50/147/42 49/148/42 53/149/42 
f 53/149/42 52/150/42 50/147/42 
s 32
f 49/151/43 48/152/43 54/153/43 
f 54/153/43 53/154/43 49/151/43 
s 64
f 48/155/44 47/156/44 51/157/44 
f 51/157/44 54/158/44 48/155/44 
# 12 faces

#
# object Crystal_Ring
#

v  0.5000 1.2101 -1.1130
v  0.5000 1.2101 -0.9631
v  0.8274 1.2101 -0.8274
v  0.9335 1.2101 -0.9335
v  0.5000 1.0601 -0.9631
v  0.8274 1.0601 -0.8274
v  0.5000 1.0601 -1.1130
v  0.9335 1.0601 -0.9335
v  0.9631 1.2101 -0.5000
v  1.1130 1.2101 -0.5000
v  0.9631 1.0601 -0.5000
v  1.1130 1.0601 -0.5000
v  0.8274 1.2101 -0.1726
v  0.9335 1.2101 -0.0665
v  0.8274 1.0601 -0.1726
v  0.9335 1.0601 -0.0665
v  0.5000 1.2101 -0.0369
v  0.5000 1.2101 0.1130
v  0.5000 1.0601 -0.0369
v  0.5000 1.0601 0.1130
v  0.1726 1.2101 -0.1726
v  0.0665 1.2101 -0.0665
v  0.1726 1.0601 -0.1726
v  0.0665 1.0601 -0.0665
v  0.0369 1.2101 -0.5000
v  -0.1130 1.2101 -0.5000
v  0.0369 1.0601 -0.5000
v  -0.1130 1.0601 -0.5000
v  0.1726 1.2101 -0.8274
v  0.0665 1.2101 -0.9335
v  0.1726 1.0601 -0.8274
v  0.0665 1.0601 -0.9335
# 32 vertices

vn 0.0000 1.0000 -0.0000
vn -0.3827 0.0000 0.9239
vn 0.0000 -1.0000 -0.0000
vn 0.3827 0.0000 -0.9239
vn -0.9239 0.0000 0.3827
vn 0.9239 0.0000 -0.3827
vn -0.9239 0.0000 -0.3827
vn 0.0000 -1.0000 0.0000
vn 0.9239 0.0000 0.3827
vn -0.3827 0.0000 -0.9239
vn 0.3827 0.0000 0.9239
vn -0.0000 -1.0000 0.0000
vn -0.0000 -1.0000 -0.0000
# 13 vertex normals

vt 0.2578 0.5313 0.7252
vt 0.2422 0.5781 0.7252
vt 0.1406 0.5781 0.7252
vt 0.1250 0.5313 0.7252
vt 0.1250 0.6250 0.8789
vt 0.1250 0.5859 0.8789
vt 0.2578 0.5859 0.7697
vt 0.2578 0.6250 0.7697
vt 0.1406 0.5781 0.5358
vt 0.1250 0.5313 0.5358
vt 0.2578 0.5313 0.5358
vt 0.2422 0.5781 0.5358
vt 0.2578 0.5859 0.9995
vt 0.2578 0.6250 0.9995
vt 0.1250 0.6250 0.8551
vt 0.1250 0.5859 0.8551
vt 0.1250 0.6250 0.7668
vt 0.1250 0.5859 0.7668
vt 0.2578 0.5859 0.8773
vt 0.2578 0.6250 0.8773
vt 0.2578 0.5859 0.8532
vt 0.2578 0.6250 0.8532
vt 0.1250 0.6250 0.9995
vt 0.1250 0.5859 0.9995
vt 0.1250 0.6250 0.8773
vt 0.1250 0.5859 0.8773
vt 0.2578 0.5859 0.7668
vt 0.2578 0.6250 0.7668
vt 0.1250 0.6250 0.8532
vt 0.1250 0.5859 0.8532
vt 0.1250 0.6250 0.2429
vt 0.1250 0.5859 0.2429
vt 0.2578 0.5859 0.1338
vt 0.2578 0.6250 0.1338
vt 0.2578 0.5859 0.1576
vt 0.2578 0.6250 0.1576
vt 0.1250 0.6250 0.0132
vt 0.1250 0.5859 0.0132
vt 0.1250 0.6250 0.1338
vt 0.1250 0.5859 0.1338
vt 0.2578 0.5859 0.2429
vt 0.2578 0.6250 0.2429
vt 0.2578 0.5859 0.0132
vt 0.2578 0.6250 0.0132
vt 0.1250 0.6250 0.1576
vt 0.1250 0.5859 0.1576
vt 0.1250 0.6250 0.2332
vt 0.1250 0.5859 0.2332
vt 0.2578 0.5859 0.1227
vt 0.2578 0.6250 0.1227
vt 0.2578 0.5859 0.1468
vt 0.2578 0.6250 0.1468
vt 0.1250 0.6250 0.0005
vt 0.1250 0.5859 0.0005
vt 0.1250 0.6250 0.1227
vt 0.1250 0.5859 0.1227
vt 0.2578 0.5859 0.2332
vt 0.2578 0.6250 0.2332
vt 0.2578 0.5859 0.0005
vt 0.2578 0.6250 0.0005
vt 0.1250 0.6250 0.1468
vt 0.1250 0.5859 0.1468
vt 0.1250 0.6250 0.7697
vt 0.1250 0.5859 0.7697
vt 0.2578 0.5859 0.8789
vt 0.2578 0.6250 0.8789
vt 0.2578 0.5859 0.8551
vt 0.2578 0.6250 0.8551
# 68 texture coords

g Crystal_Ring
s off
f 55/159/45 56/160/45 57/161/45 
f 57/161/45 58/162/45 55/159/45 
f 56/163/46 59/164/46 60/165/46 
f 60/165/46 57/166/46 56/163/46 
f 59/167/47 61/168/47 62/169/47 
f 62/169/47 60/170/47 59/167/47 
f 61/171/48 55/172/48 58/173/48 
f 58/173/48 62/174/48 61/171/48 
f 58/159/45 57/160/45 63/161/45 
f 63/161/45 64/162/45 58/159/45 
f 57/175/49 60/176/49 65/177/49 
f 65/177/49 63/178/49 57/175/49 
f 60/167/47 62/168/47 66/169/47 
f 66/169/47 65/170/47 60/167/47 
f 62/179/50 58/180/50 64/181/50 
f 64/181/50 66/182/50 62/179/50 
f 64/159/45 63/160/45 67/161/45 
f 67/161/45 68/162/45 64/159/45 
f 63/183/51 65/184/51 69/185/51 
f 69/185/51 67/186/51 63/183/51 
f 65/167/52 66/168/52 70/169/52 
f 70/169/52 69/170/52 65/167/52 
f 66/171/53 64/172/53 68/187/53 
f 68/187/53 70/188/53 66/171/53 
f 68/159/45 67/160/45 71/161/45 
f 71/161/45 72/162/45 68/159/45 
f 67/189/54 69/190/54 73/191/54 
f 73/191/54 71/192/54 67/189/54 
f 69/167/52 70/168/52 74/169/52 
f 74/169/52 73/170/52 69/167/52 
f 70/193/55 68/194/55 72/195/55 
f 72/195/55 74/196/55 70/193/55 
f 72/159/45 71/160/45 75/161/45 
f 75/161/45 76/162/45 72/159/45 
f 71/197/48 73/198/48 77/199/48 
f 77/199/48 75/200/48 71/197/48 
f 73/167/56 74/168/56 78/169/56 
f 78/169/56 77/170/56 73/167/56 
f 74/201/46 72/202/46 76/203/46 
f 76/203/46 78/204/46 74/201/46 
f 76/159/45 75/160/45 79/161/45 
f 79/161/45 80/162/45 76/159/45 
f 75/205/50 77/206/50 81/207/50 
f 81/207/50 79/208/50 75/205/50 
f 77/167/56 78/168/56 82/169/56 
f 82/169/56 81/170/56 77/167/56 
f 78/209/49 76/210/49 80/211/49 
f 80/211/49 82/212/49 78/209/49 
f 80/159/45 79/160/45 83/161/45 
f 83/161/45 84/162/45 80/159/45 
f 79/213/53 81/214/53 85/215/53 
f 85/215/53 83/216/53 79/213/53 
f 81/167/57 82/168/57 86/169/57 
f 86/169/57 85/170/57 81/167/57 
f 82/217/51 80/218/51 84/219/51 
f 84/219/51 86/220/51 82/217/51 
f 84/159/45 83/160/45 56/161/45 
f 56/161/45 55/162/45 84/159/45 
f 83/221/55 85/222/55 59/223/55 
f 59/223/55 56/224/55 83/221/55 
f 85/167/57 86/168/57 61/169/57 
f 61/169/57 59/170/57 85/167/57 
f 86/225/54 84/226/54 55/181/54 
f 55/181/54 61/182/54 86/225/54 
# 64 faces

#
# object Ring_Gem04
#

v  0.0105 0.9827 -0.4670
v  0.0105 1.3321 -0.4670
v  0.1313 1.3321 -0.1766
v  0.1313 0.9827 -0.1766
v  -0.1288 0.9827 -0.4091
v  -0.0080 0.9827 -0.1187
v  -0.0080 1.3321 -0.1187
v  -0.1288 1.3321 -0.4091
# 8 vertices

vn 0.9233 0.0000 -0.3840
vn -0.9233 -0.0000 0.3840
vn 0.0000 -1.0000 -0.0000
vn 0.3840 -0.0000 0.9233
vn -0.0000 1.0000 0.0000
vn -0.3840 0.0000 -0.9233
# 6 vertex normals

vt 0.2813 0.4141 0.1126
vt 0.2813 0.5234 0.1126
vt 0.1719 0.5234 0.2097
vt 0.1719 0.4141 0.2097
vt 0.0625 0.4141 0.0005
vt 0.1719 0.4141 0.0977
vt 0.1719 0.5234 0.0977
vt 0.0625 0.5234 0.0005
vt 0.0625 0.4141 0.4381
vt 0.1719 0.4141 0.4381
vt 0.1719 0.3672 0.4381
vt 0.0625 0.3672 0.4381
vt 0.0000 0.4141 0.7635
vt 0.0000 0.5234 0.7635
vt 0.0625 0.5234 0.8107
vt 0.0625 0.4141 0.8107
vt 0.1719 0.4141 0.8792
vt 0.0625 0.4141 0.8792
vt 0.0625 0.3672 0.8792
vt 0.1719 0.3672 0.8792
vt 0.0000 0.5234 0.5269
vt 0.0000 0.4141 0.5269
vt 0.0625 0.4141 0.5741
vt 0.0625 0.5234 0.5741
# 24 texture coords

g Ring_Gem04
s 2
f 87/227/58 88/228/58 89/229/58 
f 89/229/58 90/230/58 87/227/58 
s 4
f 91/231/59 92/232/59 93/233/59 
f 93/233/59 94/234/59 91/231/59 
s 8
f 87/235/60 90/236/60 92/237/60 
f 92/237/60 91/238/60 87/235/60 
s 16
f 90/239/61 89/240/61 93/241/61 
f 93/241/61 92/242/61 90/239/61 
s 32
f 89/243/62 88/244/62 94/245/62 
f 94/245/62 93/246/62 89/243/62 
s 64
f 88/247/63 87/248/63 91/249/63 
f 91/249/63 94/250/63 88/247/63 
# 12 faces

#
# object Ring_Panel04
#

v  0.0271 0.6361 -0.4323
v  0.0271 1.4274 -0.4323
v  0.1184 1.4274 -0.2129
v  0.1184 0.6361 -0.2129
v  -0.0510 0.6361 -0.3998
v  0.0403 0.6361 -0.1804
v  0.0403 1.4274 -0.1804
v  -0.0510 1.4274 -0.3998
# 8 vertices

vn 0.9233 0.0000 -0.3840
vn -0.9233 -0.0000 0.3840
vn 0.0000 -1.0000 -0.0000
vn 0.3840 -0.0000 0.9233
vn -0.0000 1.0000 0.0000
vn -0.3840 0.0000 -0.9233
# 6 vertex normals

vt 0.1172 0.5703 0.1259
vt 0.1172 0.7813 0.1259
vt 0.0234 0.7813 0.1993
vt 0.0234 0.5703 0.1993
vt 0.0234 0.5703 0.0631
vt 0.1172 0.5703 0.1365
vt 0.1172 0.7813 0.1365
vt 0.0234 0.7813 0.0631
vt 0.0234 0.5703 0.0005
vt 0.1172 0.5703 0.0005
vt 0.1172 0.5313 0.0005
vt 0.0234 0.5313 0.0005
vt 0.0234 0.5703 0.7339
vt 0.0234 0.7813 0.7339
vt 0.0000 0.7813 0.7604
vt 0.0000 0.5703 0.7604
vt 0.1172 0.5703 0.9995
vt 0.0234 0.5703 0.9995
vt 0.0234 0.5313 0.9995
vt 0.1172 0.5313 0.9995
vt 0.0000 0.7813 0.5552
vt 0.0000 0.5703 0.5552
vt 0.0234 0.5703 0.5817
vt 0.0234 0.7813 0.5817
# 24 texture coords

g Ring_Panel04
s 2
f 95/251/64 96/252/64 97/253/64 
f 97/253/64 98/254/64 95/251/64 
s 4
f 99/255/65 100/256/65 101/257/65 
f 101/257/65 102/258/65 99/255/65 
s 8
f 95/259/66 98/260/66 100/261/66 
f 100/261/66 99/262/66 95/259/66 
s 16
f 98/263/67 97/264/67 101/265/67 
f 101/265/67 100/266/67 98/263/67 
s 32
f 97/267/68 96/268/68 102/269/68 
f 102/269/68 101/270/68 97/267/68 
s 64
f 96/271/69 95/272/69 99/273/69 
f 99/273/69 102/274/69 96/271/69 
# 12 faces

