<?xml version="1.0" encoding="UTF-8" standalone="no"?>
<!-- Generator: Adobe Illustrator 13.0.1, SVG Export Plug-In . SVG Version: 6.00 Build 14948)  -->

<svg
   xmlns:dc="http://purl.org/dc/elements/1.1/"
   xmlns:cc="http://creativecommons.org/ns#"
   xmlns:rdf="http://www.w3.org/1999/02/22-rdf-syntax-ns#"
   xmlns:svg="http://www.w3.org/2000/svg"
   xmlns="http://www.w3.org/2000/svg"
   xmlns:sodipodi="http://sodipodi.sourceforge.net/DTD/sodipodi-0.dtd"
   xmlns:inkscape="http://www.inkscape.org/namespaces/inkscape"
   version="1.1"
   x="0px"
   y="0px"
   width="360"
   height="500.00003"
   viewBox="0 0 360 500.00004"
   enable-background="new 0 0 120 40"
   xml:space="preserve"
   id="svg21775"
   inkscape:version="0.48.3.1 r9886"
   sodipodi:docname="reddit-alien.svg"
   inkscape:export-filename="/home/chromakode/Documents/code/reddit/reddit-about/reddit_about/public/static/about/assets/reddit-alien.png"
   inkscape:export-xdpi="184.19029"
   inkscape:export-ydpi="184.19029"><metadata
   id="metadata21839"><rdf:RDF><cc:Work
       rdf:about=""><dc:format>image/svg+xml</dc:format><dc:type
         rdf:resource="http://purl.org/dc/dcmitype/StillImage" /><dc:title></dc:title></cc:Work></rdf:RDF></metadata><defs
   id="defs21837" /><sodipodi:namedview
   pagecolor="#ffffff"
   bordercolor="#666666"
   borderopacity="1"
   objecttolerance="10"
   gridtolerance="10"
   guidetolerance="10"
   inkscape:pageopacity="0"
   inkscape:pageshadow="2"
   inkscape:window-width="1261"
   inkscape:window-height="900"
   id="namedview21835"
   showgrid="false"
   inkscape:zoom="1"
   inkscape:cx="178.3494"
   inkscape:cy="235.80988"
   inkscape:window-x="1950"
   inkscape:window-y="64"
   inkscape:window-maximized="0"
   inkscape:current-layer="svg21775"
   fit-margin-top="0"
   fit-margin-left="0"
   fit-margin-right="0"
   fit-margin-bottom="0" />
<g
   id="Layer_2"
   transform="matrix(12.584949,0,0,12.584949,-584.34433,-1.3717583)">
	<ellipse
   cx="65.245003"
   cy="28.417999"
   rx="4.4109998"
   ry="5.3239999"
   id="ellipse21778"
   sodipodi:cx="65.245003"
   sodipodi:cy="28.417999"
   sodipodi:rx="4.4109998"
   sodipodi:ry="5.3239999"
   style="fill:#ffffff;stroke:#000000;stroke-width:1.10000002"
   d="m 69.656003,28.417999 c 0,2.940364 -1.974872,5.324 -4.411,5.324 -2.436128,0 -4.411,-2.383636 -4.411,-5.324 0,-2.940364 1.974872,-5.324 4.411,-5.324 2.436128,0 4.411,2.383636 4.411,5.324 z" />
	<g
   id="g21780">
		<g
   id="g21782">
			<path
   d="m 58.303,39.285 c 0.063,-0.197 0.108,-0.4 0.108,-0.615 0,-1.359 -1.361,-2.463 -3.04,-2.463 -1.679,0 -3.039,1.104 -3.039,2.463 0,0.215 0.044,0.418 0.108,0.615 h 5.863 z"
   id="path21784"
   inkscape:connector-curvature="0"
   style="fill:#ffffff" />
		</g>
		<g
   id="g21786">
			<path
   d="m 58.303,39.285 c 0.063,-0.197 0.108,-0.4 0.108,-0.615 0,-1.359 -1.361,-2.463 -3.04,-2.463 -1.679,0 -3.039,1.104 -3.039,2.463 0,0.215 0.044,0.418 0.108,0.615 h 5.863 z"
   id="path21788"
   inkscape:connector-curvature="0"
   style="fill:none;stroke:#000000;stroke-width:1.10000002;stroke-linecap:round;stroke-linejoin:round" />
		</g>
	</g>
	<g
   id="g21790">
		<g
   id="g21792">
			<path
   d="m 68.949,39.285 c 0.062,-0.197 0.107,-0.4 0.107,-0.615 0,-1.359 -1.361,-2.463 -3.041,-2.463 -1.679,0 -3.039,1.104 -3.039,2.463 0,0.215 0.043,0.418 0.107,0.615 h 5.866 z"
   id="path21794"
   inkscape:connector-curvature="0"
   style="fill:#ffffff" />
		</g>
		<g
   id="g21796">
			<path
   d="m 68.949,39.285 c 0.062,-0.197 0.107,-0.4 0.107,-0.615 0,-1.359 -1.361,-2.463 -3.041,-2.463 -1.679,0 -3.039,1.104 -3.039,2.463 0,0.215 0.043,0.418 0.107,0.615 h 5.866 z"
   id="path21798"
   inkscape:connector-curvature="0"
   style="fill:none;stroke:#000000;stroke-width:1.10000002;stroke-linecap:round;stroke-linejoin:round" />
		</g>
	</g>
	<circle
   cx="49.683998"
   cy="11.836"
   r="2.7019999"
   id="circle21800"
   sodipodi:cx="49.683998"
   sodipodi:cy="11.836"
   sodipodi:rx="2.7019999"
   sodipodi:ry="2.7019999"
   style="fill:#ffffff;stroke:#000000;stroke-width:1.10000002"
   d="m 52.385998,11.836 c 0,1.492274 -1.209727,2.702 -2.702,2.702 -1.492273,0 -2.702,-1.209726 -2.702,-2.702 0,-1.492273 1.209727,-2.7019995 2.702,-2.7019995 1.492273,0 2.702,1.2097265 2.702,2.7019995 z" />
	<circle
   cx="71.786003"
   cy="11.836"
   r="2.7019999"
   id="circle21802"
   sodipodi:cx="71.786003"
   sodipodi:cy="11.836"
   sodipodi:rx="2.7019999"
   sodipodi:ry="2.7019999"
   style="fill:#ffffff;stroke:#000000;stroke-width:1.10000002"
   d="m 74.488003,11.836 c 0,1.492274 -1.209727,2.702 -2.702,2.702 -1.492273,0 -2.702,-1.209726 -2.702,-2.702 0,-1.492273 1.209727,-2.7019995 2.702,-2.7019995 1.492273,0 2.702,1.2097265 2.702,2.7019995 z" />
	<path
   d="m 68.226,2.352 c 0,0 0,0 -5.404,-1.272 l -1.986,6.278"
   id="path21804"
   inkscape:connector-curvature="0"
   style="fill:none;stroke:#000000;stroke-width:1.10000002;stroke-linecap:round;stroke-linejoin:round" />
	<ellipse
   cx="56.146"
   cy="28.417999"
   rx="4.4109998"
   ry="5.3239999"
   id="ellipse21806"
   sodipodi:cx="56.146"
   sodipodi:cy="28.417999"
   sodipodi:rx="4.4109998"
   sodipodi:ry="5.3239999"
   style="fill:#ffffff;stroke:#000000;stroke-width:1.10000002"
   d="m 60.557,28.417999 c 0,2.940364 -1.974872,5.324 -4.411,5.324 -2.436128,0 -4.411,-2.383636 -4.411,-5.324 0,-2.940364 1.974872,-5.324 4.411,-5.324 2.436128,0 4.411,2.383636 4.411,5.324 z" />
	<circle
   cx="70.431"
   cy="2.789"
   r="2.1300001"
   id="circle21808"
   sodipodi:cx="70.431"
   sodipodi:cy="2.789"
   sodipodi:rx="2.1300001"
   sodipodi:ry="2.1300001"
   style="fill:#ffffff;stroke:#000000;stroke-width:1.10000002"
   d="m 72.561,2.789 c 0,1.1763666 -0.953634,2.1300001 -2.13,2.1300001 -1.176367,0 -2.13,-0.9536335 -2.13,-2.1300001 0,-1.1763665 0.953633,-2.13000008 2.13,-2.13000008 1.176366,0 2.13,0.95363358 2.13,2.13000008 z" />
	<g
   id="g21810">
		<g
   id="g21812">
			<path
   d="m 59.181,39.289 h 2.99 c 2.655,-1.383 4.624,-6.34 4.624,-12.262 0,-6.99 -2.74,-12.655 -6.119,-12.655 -3.38,0 -6.119,5.666 -6.119,12.655 0,5.922 1.968,10.879 4.624,12.262 z"
   id="path21814"
   inkscape:connector-curvature="0"
   style="fill:#ffffff" />
		</g>
		<g
   id="g21816">
			<path
   d="m 59.181,39.289 h 2.99 c 2.655,-1.383 4.624,-6.34 4.624,-12.262 0,-6.99 -2.74,-12.655 -6.119,-12.655 -3.38,0 -6.119,5.666 -6.119,12.655 0,5.922 1.968,10.879 4.624,12.262 z"
   id="path21818"
   inkscape:connector-curvature="0"
   style="fill:none;stroke:#000000;stroke-width:1.10000002" />
		</g>
	</g>
	<ellipse
   cx="60.675999"
   cy="15.552"
   rx="12.238"
   ry="7.987"
   id="ellipse21820"
   sodipodi:cx="60.675999"
   sodipodi:cy="15.552"
   sodipodi:rx="12.238"
   sodipodi:ry="7.987"
   style="fill:#ffffff;stroke:#000000;stroke-width:1.10000002"
   d="m 72.913999,15.552 c 0,4.411098 -5.47914,7.987 -12.238,7.987 -6.758861,0 -12.238,-3.575902 -12.238,-7.987 0,-4.411098 5.479139,-7.9869999 12.238,-7.9869999 6.75886,0 12.238,3.5759019 12.238,7.9869999 z" />
	
		<line
   x1="57.457001"
   y1="39.285"
   x2="64.053001"
   y2="39.285"
   id="line21822"
   style="fill:none;stroke:#000000;stroke-width:1.10000002;stroke-linecap:round;stroke-linejoin:round" />
	<g
   id="g21824">
		<path
   style="fill:#ff4500;stroke:none"
   d="m 135.90625,159.65625 c -13.67995,0 -25.15625,11.4763 -25.15625,25.15625 0,13.67995 11.4763,24.78125 25.15625,24.78125 13.67995,0 24.78125,-11.1013 24.78125,-24.78125 0,-13.67995 -11.1013,-25.15625 -24.78125,-25.15625 z"
   transform="matrix(0.07946,0,0,0.07946,45.637601,-0.68559946)"
   id="circle21826"
   inkscape:connector-curvature="0" />
		<path
   style="fill:#ff4500;stroke:none"
   d="m 244.46875,159.65625 c -13.68691,0 -25.1875,11.46934 -25.1875,25.15625 0,13.68691 11.50059,24.78125 25.1875,24.78125 13.68692,0 24.78125,-11.09434 24.78125,-24.78125 0,-13.68691 -11.09433,-25.15625 -24.78125,-25.15625 z"
   transform="matrix(0.07946,0,0,0.07946,45.637601,-0.68559946)"
   id="circle21828"
   inkscape:connector-curvature="0" />
		<path
   d="m 56.507,19.229 c 1.066,1.066 2.786,1.271 4.212,1.271"
   id="path21830"
   inkscape:connector-curvature="0"
   style="fill:none;stroke:#000000;stroke-width:1.10000002;stroke-linecap:round" />
		<path
   d="M 64.963,19.229 C 63.896,20.295 62.177,20.5 60.75,20.5"
   id="path21832"
   inkscape:connector-curvature="0"
   style="fill:none;stroke:#000000;stroke-width:1.10000002;stroke-linecap:round" />
	</g>
</g>
<g
   id="Layer_3"
   transform="translate(-56.49872,470.00082)">
</g>
</svg>